<?xml version="1.0" standalone="no"?>
<!DOCTYPE svg PUBLIC "-//W3C//DTD SVG 20010904//EN"
 "http://www.w3.org/TR/2001/REC-SVG-20010904/DTD/svg10.dtd">
<svg version="1.0" xmlns="http://www.w3.org/2000/svg"
 width="700.000000pt" height="700.000000pt" viewBox="0 0 700.000000 700.000000"
 preserveAspectRatio="xMidYMid meet">
<metadata>
Created by potrace 1.11, written by Peter Selinger 2001-2013
</metadata>
<g transform="translate(0.000000,700.000000) scale(0.100000,-0.100000)"
fill="#000000" stroke="none">
<path d="M3500 4546 l0 -1779 -97 6 c-285 16 -551 126 -792 328 -81 67 -201
211 -265 319 -57 93 -127 262 -147 350 -8 36 -18 60 -26 60 -20 0 -225 -45
-365 -80 -159 -40 -503 -155 -643 -215 -701 -300 -1101 -691 -1157 -1132 -58
-454 310 -908 1003 -1237 449 -213 1046 -373 1649 -440 478 -54 1001 -65 1415
-31 1080 89 1997 399 2518 850 174 151 308 341 369 525 30 89 32 104 32 240 1
165 -11 223 -74 357 -56 120 -132 224 -245 339 -362 364 -968 643 -1765 813
-79 17 -85 20 -83 42 1 13 7 74 13 136 32 306 -77 659 -338 1093 -202 336
-522 743 -860 1090 l-141 145 -1 -1779z"/>
</g>
</svg>
